PathFileType	4	(X/Y/Z)	2_1_tpose_p1_0-195_filt_butterworth.trc
DataRate	CameraRate	NumFrames	NumMarkers	Units	OrigDataRate	OrigDataStartFrame	OrigNumFrames
59.0	59.0	6	27	m	59.0	170	195
Frame#	Time	RHip			RKnee			RAnkle			RBigToe			RSmallToe			RHeel			LHip			LKnee			LAnkle			LBigToe			LSmallToe			LHeel			Neck			Head			Nose			RShoulder			RElbow			RWrist			RThumb			RIndex			RPinky			LShoulder			LElbow			LWrist			LThumb			LIndex			LPinky			
		X1	Y1	Z1	X2	Y2	Z2	X3	Y3	Z3	X4	Y4	Z4	X5	Y5	Z5	X6	Y6	Z6	X7	Y7	Z7	X8	Y8	Z8	X9	Y9	Z9	X10	Y10	Z10	X11	Y11	Z11	X12	Y12	Z12	X13	Y13	Z13	X14	Y14	Z14	X15	Y15	Z15	X16	Y16	Z16	X17	Y17	Z17	X18	Y18	Z18	X19	Y19	Z19	X20	Y20	Z20	X21	Y21	Z21	X22	Y22	Z22	X23	Y23	Z23	X24	Y24	Z24	X25	Y25	Z25	X26	Y26	Z26	X27	Y27	Z27	
170	2.8813559322033897	0.3309210967448013	0.5468308757056599	0.9503900096122252	0.33567337514497453	0.7103000616546986	1.4231246085936309	0.3128850149707882	0.8993171347545195	1.8262210641837058	0.3095204599999662	0.6581353392293272	1.8828763155526174	0.37644574144867404	0.7451214724217262	1.9004725841794172	0.2901776301015192	0.9494968616045663	1.8780081420009247	0.11143902855414314	0.5121681264993768	0.9501445096876164	0.11708926133142138	0.669803153273679	1.3952378303749637	0.11289524853299629	0.8242053827844542	1.8078055416296261	0.10818238436842441	0.7121956920135347	1.9053799153054718	0.04315107166321765	0.7057817651483566	1.877474041820682	0.12569074868363767	0.9444849036609171	1.885642254734024	0.2334366205520806	0.3176548583145884	0.25735696893111476	0.24103766302622445	0.17832318573870223	0.02024304079347721	0.24112471224501356	0.18793291742162818	0.14650232276602396	0.40844791497462074	0.36550778234157183	0.3226610192121818	0.6895649441120995	0.45248361541725846	0.37064628031225283	0.9715117863663019	0.47517809422744856	0.40300532741052714	1.1061904947728072	0.5082441268561011	0.4468180424074178	1.128867040979451	0.5309793447171943	0.44151907142342106	1.0819134647670339	0.6029060062184856	0.4486373670491507	0.05582764565018468	0.35051403405784864	0.3014957641274457	-0.20807871853363102	0.3959076200355893	0.36777508700027894	-0.5045319319508632	0.40253220218102614	0.3879486937832667	-0.6070647218259739	0.38233896458824485	0.4235029890257972	-0.6653542269398235	0.38414190159989736	0.4164593595144931	-0.6649043002995549	0.4791198424768173	0.39921212744784657
171	2.8983050847457625	0.33091236364199683	0.5470799710289235	0.9507917909803059	0.3355829434375496	0.7104750694492422	1.4236246995415525	0.31293871235702053	0.9005869623396375	1.82635562902815	0.3095755719742692	0.6581149987394133	1.882896113636464	0.3764690902355061	0.7451671774773692	1.9005633834362243	0.2906090282407755	0.9508276333443924	1.8799782713536217	0.1115669214941408	0.5122386060206808	0.9514613227858549	0.11709177955378261	0.6698703434131908	1.3953319939338478	0.11278136896843435	0.8245886314232954	1.8079447672364544	0.10775932691817855	0.7080670564990449	1.9041783264302388	0.04317606083390911	0.7057442732548455	1.8775007512340112	0.12633225302235174	0.9421228943143786	1.8852083146537875	0.23342396725668918	0.31768838417829015	0.25735957300326345	0.24103742489974772	0.17877882863384392	0.02034533563673948	0.24116158450874522	0.18792608158145546	0.1465693262315876	0.40841791236875	0.3655479352370061	0.3226563559840786	0.6894364445212022	0.45264472490013274	0.3706235898693563	0.9716142527188477	0.4753762257373181	0.40328491292696683	1.1060727354855724	0.5082216640504997	0.4468351467780529	1.1288678276334558	0.5310824053961529	0.4415181207764605	1.0854034741524246	0.6117640379396662	0.4483699102772529	0.055843821184069234	0.3505007335550012	0.301495180100749	-0.20786318749082608	0.3949856645451923	0.3666706128451954	-0.5048998400660931	0.407084181640753	0.38711669450185043	-0.6069065400104414	0.382060132855245	0.4234854165388494	-0.663874142551302	0.3866530558289961	0.41623787114148375	-0.664441083939221	0.4780552106019889	0.3996711392973013
172	2.915254237288136	0.3309086797515349	0.5470520078575499	0.9507886798275413	0.335579595142712	0.7105591414305107	1.423666049796818	0.31319282682705285	0.9023682900576334	1.8273786832121623	0.3095860102492438	0.6580699364112075	1.8829235601326797	0.3765158154172772	0.7452595383709728	1.9007200828933848	0.29137559336844654	0.953196247220389	1.8834477502984488	0.11158928398882782	0.5122764995956307	0.9517268836668118	0.11706524557053753	0.6700527712806164	1.3951680604422203	0.11271769052574271	0.8247961089397976	1.807999042608964	0.10714718434901967	0.7023135955084484	1.9024754092782268	0.043173713801651	0.7056213597230679	1.8774661751061794	0.12792099988919203	0.9393477820368481	1.8851706455463912	0.2334152277565522	0.31773507548972657	0.25735983545107055	0.24104315976371218	0.17891884800241384	0.020372492025274403	0.24119216546518252	0.18797279599467748	0.14665182807001226	0.40840940395342346	0.36557661180015183	0.3226520483178124	0.6889738937726666	0.45282881136921976	0.37056660496171057	0.9718065340739677	0.47589978860122795	0.40402375768240767	1.1060960648113807	0.5095127364582264	0.4466354143489711	1.1288078749070292	0.5311255177864622	0.44147388354268535	1.0880003686564987	0.6183245221802549	0.4483169863456941	0.05586503653473661	0.35048463424931886	0.3014994876874337	-0.2077650924596194	0.3945069389687197	0.3661459843559407	-0.5051072429827409	0.40968257007865855	0.3866415821378405	-0.6068680555164633	0.38166212643104336	0.4236228982890904	-0.6637489153601845	0.3911875281598166	0.4156591277870168	-0.6645245354644423	0.47705006271812234	0.39947934492849985
173	2.9322033898305087	0.3309112067976881	0.5469510625697129	0.9506676197473396	0.33560960805938383	0.7105393227663778	1.4235649351033386	0.313439147272757	0.9036908531179519	1.8285198161934466	0.30957180429341	0.6580625263249076	1.882944469591595	0.37655645703944574	0.7453582815681462	1.9008588818387369	0.29213953419332866	0.9555688586327918	1.8868930274323794	0.11144924623218821	0.5122422072511092	0.9503705090087486	0.11703920917432016	0.6703317214765265	1.3950415385649952	0.11270093548450796	0.8248244301288674	1.8079615511602378	0.1066844081404359	0.6980709534333275	1.901210998943961	0.04315461433503142	0.7054306612790535	1.8773841243354705	0.13005968146282912	0.9353975931560173	1.8839750190583526	0.23341366702345534	0.31778328356053004	0.2573546477433656	0.2410484801600901	0.17872218126080913	0.020118953155419693	0.24120388969544246	0.1880154600750863	0.14667996380861648	0.40841926780892346	0.3656154599137765	0.3226524504307774	0.6879961718841165	0.4529652649887474	0.3705057556913271	0.9720302564730866	0.47660207713397695	0.40503960305685527	1.1066079456526374	0.5123675882827473	0.44620156413461604	1.128719097204082	0.5311112033326849	0.4414147325107029	1.0890405912358536	0.6209809226814715	0.44874477509223293	0.05588116934478532	0.35046913275770375	0.30150549952965616	-0.20783927061309748	0.39457189297350076	0.36571886650546753	-0.5051780185801085	0.4105717141484912	0.38648089066521796	-0.606787758626032	0.3811593879494855	0.4237190563514174	-0.6643491464727262	0.39526162674031173	0.41506716864457455	-0.6653594463048533	0.4769354497430745	0.3987835767200786
174	2.949152542372881	0.33091716148732586	0.5468741748262704	0.95056993900632	0.33563947539068917	0.7104616111010142	1.4234763219042654	0.3135396889824964	0.9042115688278826	1.829070913191528	0.30955211991229364	0.6580944385263693	1.8829495398088332	0.3765763611282826	0.7454108823002515	1.9009142979295368	0.2926040608090451	0.9570281712242539	1.8889800389519151	0.11123304509241719	0.5121232783307752	0.9482235496816117	0.11702661069628807	0.6703238330423253	1.39502255207517	0.1126975110376614	0.824808157599817	1.8079005013414844	0.10650531723298357	0.6965230388664323	1.9007407234046336	0.04313887457831784	0.705262433931185	1.8773116888141204	0.13176167192759866	0.9314023656763684	1.8814848984600494	0.23342216335573535	0.317801912667075	0.25734685233036836	0.2410516356997206	0.17825075063772827	0.019447702774458814	0.24120024043790828	0.18803577558922274	0.14667098791168118	0.4084294186570596	0.3656580350413686	0.3226563113081801	0.6867433057110255	0.45300334788590824	0.3704818406760086	0.97219190061383	0.4771694434186417	0.40585010162294466	1.1078524486414567	0.5159757281791765	0.4456674572651196	1.1286662531723994	0.5310737791047585	0.4413837900917884	1.0891651523440014	0.6213344720422598	0.44951243084228065	0.05586420317868696	0.35050774184808425	0.3015091876431609	-0.2080226118065638	0.39494392136321826	0.3651980524632078	-0.5050450655104078	0.4089342832038594	0.3867630218572404	-0.6067452207092524	0.38082461290350855	0.4237362335099519	-0.6650079237110336	0.39810894213814985	0.41462684406314554	-0.6662233859596535	0.47776620671663417	0.3980571594784246
175	2.9661016949152543	0.33092702984861544	0.5468390610285354	0.9505317961562388	0.33565853650706823	0.7103790444223952	1.423422894761839	0.3135319611762707	0.9042169252052514	1.829074784779412	0.30953988863426807	0.6581180813182597	1.8829526444015185	0.37658951339193203	0.745409194636191	1.9009038996745304	0.292752702906092	0.957473226703854	1.889636589600886	0.11107295368852033	0.5119661877506991	0.9466191710747685	0.11705353562585885	0.6690949155514108	1.3950971188893466	0.11269540852581438	0.8247989370981925	1.8078756913044582	0.1065040609014683	0.6966228949978339	1.900736697011848	0.04312899812337823	0.7052281127047758	1.8772937464053066	0.13238424094808152	0.9293173219474389	1.8790546530799952	0.23343997571957664	0.3177652854995519	0.25734250917910245	0.24105361950238166	0.17768829769897274	0.01856766113429409	0.24119507238519383	0.18802030504757636	0.14666166449855736	0.4084308631647492	0.36568876946865225	0.3226626547577047	0.6857470638588591	0.45295523759437917	0.37050535852477223	0.9722440031290227	0.47739355667273997	0.40614296761559154	1.1094663375183447	0.5186756794372493	0.4452577484903433	1.1286722457622738	0.5310108682027521	0.4413941581011147	1.0890574534720778	0.6210706907828767	0.45016176857403994	0.05577399774127134	0.35069844680210555	0.3015046441379817	-0.20805534242447307	0.395043190424836	0.3647773658163618	-0.5047325087810592	0.4050931478897687	0.3874246452411537	-0.6067790409562283	0.38072480876373066	0.42367461915879656	-0.6655704295845621	0.4005607590292928	0.4142223653883218	-0.6666004391721063	0.47884604956989985	0.3975930745409946
